<svg width="24" height="24" viewBox="0 0 24 24" fill="none" xmlns="http://www.w3.org/2000/svg">
<path d="M11.9995 1.5C7.8883 1.5 8.35815 4.31356 2.98572 4.31356C2.39107 4.31356 2.00344 4.70646 2.00344 5.18177V9.19168C1.98348 10.1313 2.05034 11.0707 2.20314 11.9979L2.55555 12.5526L13.1106 13.1031L12.5554 2.05263L11.9995 1.5Z" fill="#36C2F1"/>
<path d="M12.0017 11.9984L10.8906 17.5263L12.0017 22.4977C12.9282 22.4977 17.0937 19.5414 19.534 16.5572C20.9156 14.8679 21.5294 13.4449 21.7966 11.9954L17.0017 10.8947L12.0017 11.9984Z" fill="#105196"/>
<path d="M21.7949 11.9979C21.9482 11.0707 22.0155 10.1313 21.996 9.19168V5.18177C21.996 4.70646 21.6069 4.31356 21.0123 4.31356C15.6399 4.31356 16.1038 1.5 12 1.5V11.9979H21.7949Z" fill="#0680D7"/>
<path d="M2.20508 11.9977C2.47377 13.4442 3.08604 14.8672 4.46769 16.5594C6.90796 19.5437 11.0749 22.5 12.0014 22.5V11.9977H2.20508Z" fill="#0373CC"/>
</svg>
