<svg width="24" height="24" viewBox="0 0 24 24" fill="none" xmlns="http://www.w3.org/2000/svg">
<path d="M15 3H7.8C7.358 3 7 3.298 7 3.667V7L15 12L18.5 13.5L22 12V7L15 3Z" fill="#21A366"/>
<path d="M7 12H15V7H7V12Z" fill="#107C41"/>
<path d="M22 3.8201V7.0001H15V3.0001H21.17C21.63 3.0001 22 3.3701 22 3.8201" fill="#33C481"/>
<path d="M15 12H7V16.035V16.069V20.167C7 20.627 7.373 21 7.833 21H21.167C21.627 21 22 20.627 22 20.167V17L15 12Z" fill="#185C37"/>
<path d="M15 17H22V12H15V17Z" fill="#107C41"/>
<path opacity="0.5" d="M13.963 7H7V19H13.759C14.389 19 15 18.389 15 17.839V8C15 7.45 14.533 7 13.963 7" fill="black"/>
<path d="M12.9996 17.9998H3.00061C2.44761 17.9998 2.00061 17.5518 2.00061 16.9998V7.0008C2.00061 6.4478 2.44761 6.0008 3.00061 6.0008H12.9996C13.5516 6.0008 13.9996 6.4478 13.9996 7.0008V16.9998C13.9996 17.5518 13.5516 17.9998 12.9996 17.9998" fill="#107C41"/>
<path d="M4.76181 15.625L7.10781 11.99L4.95881 8.375H6.68781L7.86081 10.686C7.96881 10.905 8.04281 11.068 8.08381 11.176H8.09881C8.17581 11.001 8.25681 10.831 8.34081 10.665L9.59481 8.375H11.1828L8.97781 11.97L11.2378 15.625H9.54981L8.19481 13.087C8.13681 12.993 8.08381 12.88 8.03281 12.748H8.01281C7.98881 12.829 7.93681 12.939 7.85581 13.077L6.46081 15.625H4.76181Z" fill="white"/>
</svg>
