<svg width="24" height="24" viewBox="0 0 24 24" fill="none" xmlns="http://www.w3.org/2000/svg">
<path d="M21.0343 10.0012H16.8733L15.7123 10.9402V15.5972C15.7123 17.3262 17.1133 18.7282 18.8423 18.7282C20.5723 18.7282 21.9733 17.3262 21.9733 15.5972V10.9402C21.9733 10.4222 21.5533 10.0012 21.0343 10.0012" fill="#5059C9"/>
<path d="M22 7C22 8.104 21.105 9 20 9C18.895 9 18 8.104 18 7C18 5.896 18.895 5 20 5C21.105 5 22 5.896 22 7" fill="#5059C9"/>
<path d="M9.89209 10.0046H17.0961C17.5921 10.0046 17.9941 10.4066 17.9941 10.9026V16.5946C17.9941 19.0306 16.0201 21.0046 13.5841 21.0046H13.4041C10.9681 21.0046 8.99409 19.0306 8.99409 16.5946V10.9026C8.99409 10.4066 9.39609 10.0046 9.89209 10.0046" fill="#7B83EB"/>
<path d="M16.9066 6C16.9066 7.605 15.6056 8.907 13.9996 8.907C12.3946 8.907 11.0936 7.605 11.0936 6C11.0936 4.395 12.3946 3.093 13.9996 3.093C15.6056 3.093 16.9066 4.395 16.9066 6" fill="#7B83EB"/>
<path opacity="0.5" fill-rule="evenodd" clip-rule="evenodd" d="M15.0001 8.6814V8.0004C15.0001 7.4504 14.5281 7.0004 13.9511 7.0004H11.2711C11.6881 8.0944 12.7391 8.8754 13.9801 8.8754C14.3401 8.8754 14.6821 8.8014 15.0001 8.6814ZM8.99409 10.9024C8.99409 10.4064 9.39609 10.0044 9.89209 10.0044H15.0001V17.8394C15.0001 18.3894 14.3821 19.0004 13.7451 19.0004H9.71509C9.26209 18.3074 8.99409 17.4834 8.99409 16.5944V10.9024Z" fill="black"/>
<path d="M3 18C2.45 18 2 17.55 2 17V7C2 6.45 2.45 6 3 6H13C13.55 6 14 6.45 14 7V17C14 17.55 13.55 18 13 18H3Z" fill="#4B53BC"/>
<path d="M11.0001 10H8.83511V15.82H7.41211V10H5.23511V8.57001H11.0001V10Z" fill="white"/>
</svg>
