<svg width="24" height="24" viewBox="0 0 24 24" fill="none" xmlns="http://www.w3.org/2000/svg">
<path d="M20.0986 3H8.9016C8.4036 3 7.9996 3.404 7.9996 3.901V5L14.9996 6.5L20.9996 5V3.901C20.9996 3.404 20.5966 3 20.0986 3" fill="#0364B8"/>
<path fill-rule="evenodd" clip-rule="evenodd" d="M21.7502 11.3729C21.8952 11.4449 21.9972 11.5909 21.9972 11.7639C21.9972 11.9239 21.9072 12.0579 21.7802 12.1349V12.3119L14.6192 16.3909C14.5882 16.4109 14.5562 16.4299 14.5232 16.4459C14.3912 16.5119 14.2412 16.5489 14.0832 16.5489C13.9252 16.5489 13.7762 16.5119 13.6432 16.4459C13.6102 16.4299 13.5782 16.4109 13.5472 16.3909L6.4052 12.2939V11.9129H6.5142V11.4249L13.6572 7.3629C13.6882 7.3429 13.7202 7.3249 13.7532 7.3089C13.8862 7.2429 14.0352 7.2059 14.1932 7.2059C14.3512 7.2059 14.5002 7.2429 14.6332 7.3089C14.6662 7.3249 14.6982 7.3429 14.7292 7.3629L21.7492 11.3689L21.7502 11.3729ZM14.1932 11.8239V11.9309H14.5702L14.1932 11.8239Z" fill="#0A2767"/>
<path d="M8 5H15L21 10V17H15L8 10V5Z" fill="#28A8EA"/>
<path d="M15 10H21V5H15V10Z" fill="#50D9FF"/>
<path d="M8 19H15V10H8V19Z" fill="#176EBE"/>
<path opacity="0.5" d="M13.9852 17.5L6.3082 12.146L6.7172 11.427C6.7172 11.427 13.7682 15.472 13.8952 15.542C13.9272 15.557 14.0232 15.567 14.0932 15.532C14.1982 15.473 21.4672 11.359 21.4672 11.359L21.6502 12.212L13.9852 17.5Z" fill="#0A2767"/>
<path d="M21.6249 20.8413C21.8459 20.6913 21.9999 20.4513 21.9999 20.1663V11.7643C21.9999 11.9263 21.9109 12.0683 21.7779 12.1443V12.1443L21.7689 12.1503C21.7679 12.1503 21.7669 12.1503 21.7669 12.1513L14.5879 16.2163C14.5569 16.2353 14.4429 16.2893 14.4429 16.2893C14.3089 16.3553 14.1549 16.3923 13.9949 16.3923C13.9559 16.3923 13.9189 16.3823 13.8799 16.3773L15.5789 19.7163L21.6249 20.8413Z" fill="#1490DF"/>
<path opacity="0.1" d="M14.7834 16.0933L14.5314 16.2373C14.5004 16.2573 14.3884 16.3113 14.3884 16.3113C14.2554 16.3763 14.1034 16.4143 13.9454 16.4143C13.8014 16.4143 13.6564 16.3763 13.5314 16.3193V16.3393L17.0004 19.4993L21.5354 20.9173C21.7544 20.7673 21.9114 20.6413 21.9934 20.3233V20.2603L14.7834 16.0933Z" fill="black"/>
<path d="M6.8658 20.9819L20.9788 20.9999C21.3348 20.9939 21.4228 20.9859 21.6318 20.8459L13.7248 16.2879C13.6908 16.2709 13.6578 16.2529 13.6258 16.2329L6.2458 12.1419C6.2448 12.1419 6.2448 12.1409 6.2438 12.1409L6.2398 12.1389L5.9998 11.9999V20.1559C5.9998 20.6159 6.3898 20.9819 6.8658 20.9819" fill="#28A8EA"/>
<path opacity="0.5" d="M13.7448 19C14.3818 19 14.9998 18.389 14.9998 17.839V8C14.9998 7.45 14.5278 7 13.9508 7H7.8058V10.428V10.833L6.2448 11.68L6.2368 11.687C6.0978 11.766 6.0038 11.885 6.0038 12.05C6.0038 12.071 5.9998 12.087 5.9998 12.062H6.0168V19H13.7448Z" fill="black"/>
<path d="M13 18H3C2.45 18 2 17.55 2 17V7C2 6.45 2.45 6 3 6H13C13.55 6 14 6.45 14 7V17C14 17.55 13.55 18 13 18" fill="#0078D4"/>
<path fill-rule="evenodd" clip-rule="evenodd" d="M6.06689 8.6291C5.50589 8.9671 5.08089 9.4361 4.79389 10.0361C4.50589 10.6361 4.36189 11.3211 4.36189 12.0911C4.36189 12.8201 4.50789 13.4721 4.80089 14.0451C5.09389 14.6191 5.51289 15.0681 6.05689 15.3921C6.60089 15.7161 7.23889 15.8791 7.97089 15.8791C8.71389 15.8791 9.36189 15.7141 9.91489 15.3841C10.4669 15.0551 10.8929 14.5911 11.1909 13.9931C11.4889 13.3951 11.6379 12.7051 11.6379 11.9241C11.6379 11.1811 11.4929 10.5221 11.2039 9.9471C10.9149 9.3711 10.5009 8.9231 9.96389 8.6021C9.42689 8.2821 8.80289 8.1211 8.09189 8.1211C7.30289 8.1211 6.62889 8.2901 6.06689 8.6291ZM6.86789 14.2651C6.55389 14.0401 6.31489 13.7311 6.15089 13.3391C5.98689 12.9471 5.90489 12.5031 5.90489 12.0081C5.90489 11.5131 5.98889 11.0671 6.15589 10.6711C6.32389 10.2761 6.56789 9.9641 6.88889 9.7371C7.20889 9.5111 7.59089 9.3981 8.03389 9.3981C8.51489 9.3981 8.90989 9.5201 9.21889 9.7641C9.52789 10.0081 9.75189 10.3291 9.89089 10.7261C10.0309 11.1241 10.0999 11.5601 10.0999 12.0341C10.0999 12.5081 10.0259 12.9391 9.87789 13.3261C9.72989 13.7131 9.49789 14.0231 9.18189 14.2551C8.86689 14.4861 8.46789 14.6021 7.98689 14.6021C7.55489 14.6021 7.18189 14.4901 6.86789 14.2651Z" fill="white"/>
</svg>
