<svg width="24" height="24" viewBox="0 0 24 24" fill="none" xmlns="http://www.w3.org/2000/svg">
<path fill-rule="evenodd" clip-rule="evenodd" d="M5.92188 11.8237H19.4529C19.4529 11.8237 19.4529 9.89366 19.4529 9.6831C18.6246 6.41578 15.6854 4 12.1862 4C9.56739 4 7.26337 5.35396 5.92188 7.4044C5.92188 8.82754 5.92188 11.8237 5.92188 11.8237Z" fill="#0364B8"/>
<path fill-rule="evenodd" clip-rule="evenodd" d="M9.15227 8.30349L9.15203 8.30431C8.23597 7.73294 7.1565 7.40234 6.00013 7.40234C5.97439 7.40234 5.94909 7.404 5.92344 7.40431C2.64519 7.44587 0 10.1364 0 13.4511C0 14.7371 0.399257 15.9285 1.07801 16.9086H14.1906V11.3459L9.15227 8.30349Z" fill="#0078D4"/>
<path fill-rule="evenodd" clip-rule="evenodd" d="M19.4514 9.68327C19.3425 9.67596 19.233 9.6709 19.1223 9.6709C18.4357 9.6709 17.7825 9.81469 17.1899 10.073L14.1875 11.3461V16.9176H23.4143C23.7861 16.2237 23.9974 15.4296 23.9974 14.5855C23.9974 11.9828 21.9902 9.85405 19.4514 9.68327Z" fill="#1490DF"/>
<path fill-rule="evenodd" clip-rule="evenodd" d="M19.1602 14.3467L17.9151 13.5949L15.0613 11.8716L14.1907 11.3459L11.8941 12.3202L7.49635 14.1859L5.52123 15.0238L1.07812 16.9087C2.16256 18.4747 3.96212 19.5 6.00025 19.5H19.1255C20.9807 19.5 22.5937 18.4551 23.4175 16.9175L19.1602 14.3467Z" fill="#28A8EA"/>
</svg>
