<svg width="24" height="24" viewBox="0 0 24 24" fill="none" xmlns="http://www.w3.org/2000/svg">
<path d="M12.9999 3.0002C8.04991 3.0002 3.99991 7.0502 3.99991 12.0002L14.9999 13.5002L12.9999 3.0002Z" fill="#ED6C47"/>
<path d="M12.9999 3.0002C17.9499 3.0002 21.9999 7.0502 21.9999 12.0002L17.4999 14.0002L12.9999 12.0002V3.0002Z" fill="#FF8F6B"/>
<path d="M21.9998 12.0002V12.0002C21.9998 16.9502 17.9498 21.0002 12.9998 21.0002C8.04979 21.0002 3.99979 16.9502 3.99979 12.0002H21.9998Z" fill="#D35230"/>
<path opacity="0.5" d="M14.0129 7H5.52891C4.56491 8.433 3.99991 10.153 3.99991 12C3.99991 14.821 5.31791 17.347 7.36591 19H13.8189C14.4179 19 14.9999 18.389 14.9999 17.839V8C14.9999 7.45 14.5559 7 14.0129 7" fill="black"/>
<path d="M13 18H3C2.45 18 2 17.55 2 17V7C2 6.45 2.45 6 3 6H13C13.55 6 14 6.45 14 7V17C14 17.55 13.55 18 13 18" fill="#C43E1C"/>
<path fill-rule="evenodd" clip-rule="evenodd" d="M10.0934 8.9565C9.6334 8.5685 8.9694 8.3745 8.1034 8.3745H5.2164V15.6245H6.6324V13.2655H8.0124C8.5654 13.2655 9.0514 13.1635 9.4714 12.9595C9.8904 12.7555 10.2144 12.4695 10.4424 12.1025C10.6694 11.7355 10.7834 11.1125 10.7834 10.6395C10.7834 9.9055 10.5534 9.3435 10.0934 8.9565ZM7.8504 12.0085H6.6324V9.4975H7.8964C8.8264 9.4975 9.2914 9.8965 9.2914 10.6955C9.2914 11.1065 9.1704 11.4735 8.9274 11.6875C8.6854 11.9015 8.3264 12.0085 7.8504 12.0085Z" fill="white"/>
</svg>
