<svg width="24" height="24" viewBox="0 0 24 24" fill="none" xmlns="http://www.w3.org/2000/svg">
<path d="M21.1666 3H7.8196C7.3676 3 6.9996 3.367 6.9996 3.82V6.99L14.4996 9.184L21.9996 6.99V3.833C21.9996 3.375 21.6246 3 21.1666 3" fill="#41A5EE"/>
<path d="M22 7H7V12L14.5 14.016L22 12V7Z" fill="#2B7CD3"/>
<path d="M22 12H7V17L15 19L22 17V12Z" fill="#185ABD"/>
<path d="M22 17H7V20.177C7 20.632 7.368 21 7.823 21H21.177C21.632 21 22 20.632 22 20.177V17Z" fill="#103F91"/>
<path opacity="0.5" d="M13.963 7H7V19H13.759C14.389 19 15 18.389 15 17.839V8C15 7.45 14.533 7 13.963 7" fill="black"/>
<path d="M13 18H3C2.45 18 2 17.55 2 17V7C2 6.45 2.45 6 3 6H13C13.55 6 14 6.45 14 7V17C14 17.55 13.55 18 13 18" fill="#185ABD"/>
<path d="M6.00899 13.8606C6.02999 14.0326 6.04299 14.1826 6.04899 14.3106H6.07299C6.08299 14.1896 6.10099 14.0426 6.12799 13.8706C6.15499 13.6986 6.18099 13.5536 6.20599 13.4356L7.30999 8.3746H8.73699L9.87899 13.3606C9.93599 13.6066 9.98399 13.9196 10.022 14.3006H10.041C10.057 14.0376 10.096 13.7346 10.16 13.3906L11.073 8.3746H12.372L10.774 15.6246H9.25599L8.16599 10.8216C8.13499 10.6836 8.09899 10.5036 8.05899 10.2806C8.01999 10.0586 7.99499 9.8966 7.98599 9.7956H7.96699C7.95399 9.9136 7.92899 10.0886 7.89299 10.3216C7.85599 10.5536 7.82699 10.7256 7.80499 10.8376L6.78199 15.6246H5.24099L3.62799 8.3746H4.95099L5.94499 13.4456C5.96699 13.5506 5.98799 13.6886 6.00899 13.8606" fill="white"/>
</svg>
